<svg id="Capa_1" enable-background="new 0 0 512 512" height="512" viewBox="0 0 512 512" width="512" xmlns="http://www.w3.org/2000/svg"><g><path d="m497 74.24v363.52c0 16.57-13.43 30-30 30h-422c-16.57 0-30-13.43-30-30v-363.52c0-16.57 13.43-30 30-30h422c16.57 0 30 13.43 30 30z" fill="#f4f1f1"/><path d="m497 74.24v363.52c0 16.57-13.43 30-30 30h-211v-423.52h211c16.57 0 30 13.43 30 30z" fill="#e7dfdd"/><circle cx="372.99" cy="90.749" fill="#ef3030" r="15"/><circle cx="433" cy="90.749" fill="#60d64d" r="15"/><path d="m467 29.24h-422c-.879 0-1.75.032-2.617.082-23.59 1.354-42.31 20.873-42.379 44.786-.001.044-.004.088-.004.132v363.52c0 24.81 20.19 45 45 45h422c24.81 0 45-20.19 45-45v-363.52c0-24.81-20.19-45-45-45zm15 408.52c0 8.27-6.73 15-15 15h-422c-8.27 0-15-6.73-15-15v-320.01h271.991c8.284 0 15-6.716 15-15v-43.51h150.009c8.27 0 15 6.729 15 15z" fill="#e7dfdd"/><ellipse cx="254.001" cy="292.755" fill="#b1d5f1" rx="130.001" ry="130.001" transform="matrix(.707 -.707 .707 .707 -132.614 265.352)"/><path d="m256 162.779v259.952c70.764-1.073 128.003-58.961 128.003-129.976s-57.239-128.903-128.003-129.976z" fill="#8bb9ff"/><path d="m256 282.756h-15.001c-8.284 0-15 6.716-15 15s6.716 15 15 15l.001 35c0 8.284 6.716 15 15 15s15-6.716 15-15v-50c0-8.284-6.716-15-15-15z" fill="#f4f1f1"/><path d="m256 282.756v80c8.284 0 15-6.716 15-15v-50c0-8.284-6.716-15-15-15z" fill="#e7dfdd"/><circle cx="256" cy="237.75" fill="#f4f1f1" r="15"/><path d="m256 222.75v30c8.284 0 15-6.716 15-15s-6.716-15-15-15z" fill="#e7dfdd"/><path d="m467 29.24h-211v88.51h45.991c8.284 0 15-6.716 15-15v-43.51h150.009c8.27 0 15 6.729 15 15v363.52c0 8.27-6.73 15-15 15h-211v30h211c24.81 0 45-20.19 45-45v-363.52c0-24.81-20.19-45-45-45z" fill="#d0c8c3"/></g></svg>